<svg xmlns="http://www.w3.org/2000/svg" xmlns:xlink="http://www.w3.org/1999/xlink" width="300" zoomAndPan="magnify" viewBox="0 0 150 52.499999" height="105" preserveAspectRatio="xMidYMid meet" version="1.0"><defs><g/><clipPath id="990f31bf58"><path d="M 0.714844 3.375 L 149.285156 3.375 L 149.285156 48.695312 L 0.714844 48.695312 Z M 0.714844 3.375 " clip-rule="nonzero"/></clipPath><clipPath id="425b04b170"><path d="M 11.210938 14.457031 L 34.425781 14.457031 L 34.425781 37.671875 L 11.210938 37.671875 Z M 11.210938 14.457031 " clip-rule="nonzero"/></clipPath><clipPath id="83b854f49c"><path d="M 11.210938 14.457031 L 34.425781 14.457031 L 34.425781 26.074219 L 11.210938 26.074219 Z M 11.210938 14.457031 " clip-rule="nonzero"/></clipPath><clipPath id="b89a1f2ad9"><path d="M 34.425781 26.0625 C 34.425781 32.476562 29.230469 37.671875 22.816406 37.671875 C 16.40625 37.671875 11.210938 32.476562 11.210938 26.0625 C 11.210938 19.652344 16.40625 14.457031 22.816406 14.457031 C 29.230469 14.457031 34.425781 19.652344 34.425781 26.0625 Z M 34.425781 26.0625 " clip-rule="nonzero"/></clipPath><clipPath id="72b96b5a5c"><path d="M 11.210938 24.777344 L 34.425781 24.777344 L 34.425781 27.351562 L 11.210938 27.351562 Z M 11.210938 24.777344 " clip-rule="nonzero"/></clipPath><clipPath id="eddc725c35"><path d="M 34.425781 26.0625 C 34.425781 32.476562 29.230469 37.671875 22.816406 37.671875 C 16.40625 37.671875 11.210938 32.476562 11.210938 26.0625 C 11.210938 19.652344 16.40625 14.457031 22.816406 14.457031 C 29.230469 14.457031 34.425781 19.652344 34.425781 26.0625 Z M 34.425781 26.0625 " clip-rule="nonzero"/></clipPath><clipPath id="22a1816f91"><path d="M 17.5 20.746094 L 28.136719 20.746094 L 28.136719 31.382812 L 17.5 31.382812 Z M 17.5 20.746094 " clip-rule="nonzero"/></clipPath><clipPath id="bca2c97530"><path d="M 34.425781 26.0625 C 34.425781 32.476562 29.230469 37.671875 22.816406 37.671875 C 16.40625 37.671875 11.210938 32.476562 11.210938 26.0625 C 11.210938 19.652344 16.40625 14.457031 22.816406 14.457031 C 29.230469 14.457031 34.425781 19.652344 34.425781 26.0625 Z M 34.425781 26.0625 " clip-rule="nonzero"/></clipPath><clipPath id="73e9aab45c"><path d="M 19.875 23.125 L 25.761719 23.125 L 25.761719 29 L 19.875 29 Z M 19.875 23.125 " clip-rule="nonzero"/></clipPath><clipPath id="abefcb240a"><path d="M 34.425781 26.0625 C 34.425781 32.476562 29.230469 37.671875 22.816406 37.671875 C 16.40625 37.671875 11.210938 32.476562 11.210938 26.0625 C 11.210938 19.652344 16.40625 14.457031 22.816406 14.457031 C 29.230469 14.457031 34.425781 19.652344 34.425781 26.0625 Z M 34.425781 26.0625 " clip-rule="nonzero"/></clipPath><clipPath id="8e3b9f059e"><path d="M 11.210938 14.296875 L 34.425781 14.296875 L 34.425781 37.511719 L 11.210938 37.511719 Z M 11.210938 14.296875 " clip-rule="nonzero"/></clipPath><clipPath id="d15a1700d6"><path d="M 22.816406 14.296875 C 16.40625 14.296875 11.210938 19.492188 11.210938 25.902344 C 11.210938 32.316406 16.40625 37.511719 22.816406 37.511719 C 29.230469 37.511719 34.425781 32.316406 34.425781 25.902344 C 34.425781 19.492188 29.230469 14.296875 22.816406 14.296875 " clip-rule="nonzero"/></clipPath></defs><g clip-path="url(#990f31bf58)"><path stroke-linecap="butt" transform="matrix(0.742924, 0, 0, 0.744068, 0.712996, 3.376326)" fill="none" stroke-linejoin="miter" d="M 0.00248687 -0.00178275 L 199.982858 -0.00178275 L 199.982858 60.907052 L 0.00248687 60.907052 L 0.00248687 -0.00178275 " stroke="#000000" stroke-width="2" stroke-opacity="1" stroke-miterlimit="4"/></g><g fill="#000000" fill-opacity="1"><g transform="translate(41.58804, 31.57429)"><g><path d="M 1.496094 0 L 4.332031 0 L 4.332031 -3.476562 L 6.382812 -3.476562 C 9.398438 -3.476562 11.339844 -5.242188 11.339844 -7.96875 C 11.339844 -10.714844 9.398438 -12.480469 6.382812 -12.480469 L 1.496094 -12.480469 Z M 4.316406 -5.917969 L 4.316406 -10.003906 L 6.152344 -10.003906 C 7.632812 -10.003906 8.453125 -9.253906 8.453125 -7.953125 C 8.453125 -6.652344 7.632812 -5.917969 6.152344 -5.917969 Z M 4.316406 -5.917969 "/></g></g></g><g fill="#000000" fill-opacity="1"><g transform="translate(54.800168, 31.57429)"><g><path d="M 7.417969 0.25 C 11.320312 0.25 14.085938 -2.425781 14.085938 -6.242188 C 14.085938 -10.054688 11.320312 -12.730469 7.417969 -12.730469 C 3.511719 -12.730469 0.765625 -10.054688 0.765625 -6.242188 C 0.765625 -2.425781 3.511719 0.25 7.417969 0.25 Z M 3.65625 -6.242188 C 3.65625 -8.488281 5.207031 -10.039062 7.417969 -10.039062 C 9.644531 -10.039062 11.179688 -8.488281 11.179688 -6.242188 C 11.179688 -3.992188 9.644531 -2.441406 7.417969 -2.441406 C 5.207031 -2.441406 3.65625 -3.992188 3.65625 -6.242188 Z M 3.65625 -6.242188 "/></g></g></g><g fill="#000000" fill-opacity="1"><g transform="translate(71.007766, 31.57429)"><g><path d="M 1.496094 0 L 4.332031 0 L 4.332031 -5.046875 L 5.832031 -5.046875 C 6.0625 -5.046875 6.257812 -5.046875 6.472656 -5.0625 L 9.148438 0 L 12.445312 0 L 9.074219 -6.117188 C 9.574219 -6.597656 9.949219 -7.222656 10.269531 -8.042969 L 12 -12.480469 L 8.933594 -12.480469 L 7.757812 -9.234375 C 7.328125 -8.058594 6.8125 -7.683594 5.402344 -7.683594 L 4.332031 -7.683594 L 4.332031 -12.480469 L 1.496094 -12.480469 Z M 1.496094 0 "/></g></g></g><g fill="#000000" fill-opacity="1"><g transform="translate(85.325372, 31.57429)"><g><path d="M 1.496094 0 L 9.894531 0 L 9.894531 -2.40625 L 4.316406 -2.40625 L 4.316406 -5.136719 L 9.21875 -5.136719 L 9.21875 -7.507812 L 4.316406 -7.507812 L 4.316406 -10.09375 L 9.699219 -10.09375 L 9.699219 -12.480469 L 1.496094 -12.480469 Z M 4.582031 -13.675781 L 6.613281 -13.675781 L 8.023438 -16.277344 L 5.632812 -16.277344 Z M 4.582031 -13.675781 "/></g></g></g><g fill="#000000" fill-opacity="1"><g transform="translate(97.485529, 31.57429)"><g><path d="M 1.496094 0 L 6.4375 0 C 10.378906 0 13.015625 -2.515625 13.015625 -6.242188 C 13.015625 -9.949219 10.378906 -12.480469 6.4375 -12.480469 L 1.496094 -12.480469 Z M 4.332031 -2.601562 L 4.332031 -9.878906 L 6.347656 -9.878906 C 8.59375 -9.878906 10.109375 -8.433594 10.109375 -6.242188 C 10.109375 -4.046875 8.59375 -2.601562 6.382812 -2.601562 Z M 4.332031 -2.601562 "/></g></g></g><g fill="#000000" fill-opacity="1"><g transform="translate(112.60548, 31.57429)"><g><path d="M 1.496094 0 L 9.894531 0 L 9.894531 -2.40625 L 4.316406 -2.40625 L 4.316406 -5.136719 L 9.21875 -5.136719 L 9.21875 -7.507812 L 4.316406 -7.507812 L 4.316406 -10.09375 L 9.699219 -10.09375 L 9.699219 -12.480469 L 1.496094 -12.480469 Z M 1.496094 0 "/></g></g></g><g fill="#000000" fill-opacity="1"><g transform="translate(124.765637, 31.57429)"><g><path d="M 0.480469 0 L 3.816406 0 L 5.527344 -2.640625 L 6.578125 -4.226562 L 7.613281 -2.640625 L 9.324219 0 L 12.660156 0 L 8.414062 -6.402344 L 12.445312 -12.480469 L 9.21875 -12.480469 L 6.5625 -8.433594 L 5.421875 -10.164062 L 3.921875 -12.480469 L 0.675781 -12.480469 L 4.726562 -6.382812 Z M 0.480469 0 "/></g></g></g><g clip-path="url(#425b04b170)"><path fill="#efefed" d="M 34.425781 26.0625 C 34.425781 32.476562 29.230469 37.671875 22.816406 37.671875 C 16.40625 37.671875 11.210938 32.476562 11.210938 26.0625 C 11.210938 19.652344 16.40625 14.457031 22.816406 14.457031 C 29.230469 14.457031 34.425781 19.652344 34.425781 26.0625 " fill-opacity="1" fill-rule="nonzero"/></g><g clip-path="url(#83b854f49c)"><g clip-path="url(#b89a1f2ad9)"><path fill="#e3350d" d="M 35.039062 26.0625 L 10.597656 26.0625 L 10.597656 13.964844 L 35.039062 13.964844 L 35.039062 26.0625 " fill-opacity="1" fill-rule="nonzero"/></g></g><g clip-path="url(#72b96b5a5c)"><g clip-path="url(#eddc725c35)"><path fill="#28292a" d="M 35.414062 27.339844 L 10.21875 27.339844 L 10.21875 24.789062 L 35.414062 24.789062 L 35.414062 27.339844 " fill-opacity="1" fill-rule="nonzero"/></g></g><g clip-path="url(#22a1816f91)"><g clip-path="url(#bca2c97530)"><path fill="#28292a" d="M 28.128906 26.0625 C 28.128906 28.996094 25.75 31.375 22.816406 31.375 C 19.882812 31.375 17.507812 28.996094 17.507812 26.0625 C 17.507812 23.132812 19.882812 20.753906 22.816406 20.753906 C 25.75 20.753906 28.128906 23.132812 28.128906 26.0625 " fill-opacity="1" fill-rule="nonzero"/></g></g><g clip-path="url(#73e9aab45c)"><g clip-path="url(#abefcb240a)"><path fill="#efefed" d="M 25.75 26.0625 C 25.75 27.683594 24.4375 28.996094 22.816406 28.996094 C 21.199219 28.996094 19.886719 27.683594 19.886719 26.0625 C 19.886719 24.445312 21.199219 23.132812 22.816406 23.132812 C 24.4375 23.132812 25.75 24.445312 25.75 26.0625 " fill-opacity="1" fill-rule="nonzero"/></g></g><g clip-path="url(#8e3b9f059e)"><g clip-path="url(#d15a1700d6)"><path stroke-linecap="butt" transform="matrix(0.535442, 0, 0, 0.535442, 11.209649, 14.295682)" fill="none" stroke-linejoin="miter" d="M 21.676974 0.00222884 C 9.705259 0.00222884 0.00240615 9.705081 0.00240615 21.676796 C 0.00240615 33.655807 9.705259 43.358659 21.676974 43.358659 C 33.655984 43.358659 43.358837 33.655807 43.358837 21.676796 C 43.358837 9.705081 33.655984 0.00222884 21.676974 0.00222884 " stroke="#000000" stroke-width="1.375998" stroke-opacity="1" stroke-miterlimit="4"/></g></g></svg>