<?xml version="1.0" standalone="no"?>
<!DOCTYPE svg PUBLIC "-//W3C//DTD SVG 20010904//EN"
 "http://www.w3.org/TR/2001/REC-SVG-20010904/DTD/svg10.dtd">
<svg version="1.0" xmlns="http://www.w3.org/2000/svg"
 width="200.000000pt" height="70.000000pt" viewBox="0 0 200.000000 70.000000"
 preserveAspectRatio="xMidYMid meet">
<metadata>
Created by potrace 1.10, written by Peter Selinger 2001-2011
</metadata>
<g transform="translate(0.000000,70.000000) scale(0.100000,-0.100000)"
fill="#000000" stroke="none">
<path d="M0 350 l0 -280 1000 0 1000 0 0 280 0 280 -1000 0 -1000 0 0 -280z
m1990 0 l0 -260 -990 0 -990 0 0 260 0 260 990 0 990 0 0 -260z"/>
<path d="M640 350 l0 -220 660 0 660 0 0 220 0 220 -660 0 -660 0 0 -220z
m1278 178 c17 -17 17 -328 0 -351 -12 -16 -59 -17 -628 -15 l-615 3 -3 165
c-1 91 0 175 3 188 l5 22 613 0 c463 0 616 -3 625 -12z"/>
<path d="M1272 460 c-27 -26 -35 -28 -52 -18 -15 9 -24 9 -43 -1 -20 -11 -28
-11 -45 0 -18 11 -24 10 -41 -5 -19 -18 -21 -17 -51 4 -25 18 -41 21 -77 17
-25 -2 -52 -12 -60 -20 -14 -14 -19 -13 -47 4 -41 25 -91 24 -116 -1 -28 -28
-29 -139 -2 -163 23 -21 36 -21 53 0 8 9 27 22 44 29 28 12 31 11 55 -17 35
-42 95 -50 146 -20 35 21 38 21 55 5 17 -15 23 -15 44 -4 19 10 27 10 39 1 9
-8 28 -10 49 -6 21 4 37 3 41 -4 10 -16 79 -14 101 3 16 12 22 12 42 -1 28
-18 90 -14 123 8 24 16 26 16 49 -2 25 -20 95 -26 106 -9 4 6 21 8 41 4 21 -4
40 -2 49 6 12 10 18 10 29 0 21 -17 60 -9 64 14 2 10 -2 29 -8 42 -8 14 -10
33 -5 51 13 43 11 55 -7 67 -14 8 -23 8 -39 -2 -15 -10 -24 -11 -32 -3 -14 14
-54 14 -63 0 -5 -8 -8 -8 -13 0 -4 6 -27 14 -52 17 -35 5 -49 2 -68 -13 -23
-19 -25 -19 -60 -1 -43 22 -89 23 -118 3 -20 -14 -23 -13 -43 15 -27 37 -46
37 -88 0z m68 11 c0 -11 -29 -35 -35 -29 -10 9 7 38 21 38 8 0 14 -4 14 -9z
m-305 -61 c26 -27 25 -84 -3 -112 -50 -50 -134 -15 -134 56 0 77 81 110 137
56z m735 -6 c7 -13 16 -24 20 -24 4 0 13 11 20 24 14 28 40 42 40 23 -1 -7
-12 -25 -25 -41 l-24 -30 31 -38 c38 -49 29 -62 -12 -18 l-30 32 -30 -32 c-41
-44 -50 -31 -12 18 l31 38 -24 30 c-13 16 -24 34 -25 41 0 19 26 5 40 -23z
m-922 14 c7 -7 12 -24 12 -38 0 -35 -17 -50 -58 -50 -31 0 -34 -2 -28 -25 5
-18 2 -25 -9 -25 -12 0 -15 15 -15 75 l0 75 43 0 c24 0 48 -5 55 -12z m276
-18 c-6 -27 -4 -30 19 -30 18 0 28 8 37 30 7 17 19 30 26 30 11 0 10 -9 -6
-40 l-21 -41 21 -28 c11 -16 20 -34 20 -40 0 -21 -27 1 -43 34 -11 24 -24 35
-38 35 -19 0 -21 -4 -16 -35 4 -26 2 -35 -9 -35 -11 0 -14 16 -14 75 0 59 3
75 15 75 11 0 13 -8 9 -30z m236 20 c0 -5 -16 -10 -35 -10 -28 0 -35 -4 -35
-20 0 -16 7 -20 36 -20 24 0 34 -4 31 -12 -2 -8 -17 -12 -36 -10 -27 2 -31 -1
-31 -23 0 -22 4 -25 35 -25 19 0 35 -4 35 -10 0 -5 -22 -10 -50 -10 l-50 0 0
75 0 75 50 0 c28 0 50 -4 50 -10z m160 -10 c12 -12 20 -33 20 -55 0 -50 -28
-75 -85 -75 l-45 0 0 75 0 75 45 0 c32 0 51 -6 65 -20z m170 10 c0 -5 -18 -10
-40 -10 -33 0 -40 -3 -40 -20 0 -16 7 -20 35 -20 25 0 35 -4 35 -15 0 -13 -7
-15 -35 -9 -33 6 -35 5 -35 -20 0 -24 4 -26 40 -26 22 0 40 -4 40 -10 0 -5
-22 -10 -50 -10 l-50 0 0 75 0 75 50 0 c28 0 50 -4 50 -10z m28 -32 c17 -17
15 -53 -3 -68 -8 -7 -15 -11 -16 -9 0 2 -2 23 -4 47 -3 43 2 51 23 30z"/>
<path d="M936 394 c-20 -20 -20 -58 0 -78 34 -34 94 -9 94 39 0 30 -25 55 -55
55 -13 0 -31 -7 -39 -16z m57 -27 c7 -19 -8 -41 -22 -33 -16 10 -14 46 3 46 8
0 16 -6 19 -13z"/>
<path d="M770 380 c0 -27 3 -30 29 -30 34 0 45 12 36 40 -4 14 -15 20 -36 20
-26 0 -29 -3 -29 -30z"/>
<path d="M1430 355 c0 -54 1 -55 28 -55 33 0 62 27 62 57 0 27 -31 53 -63 53
-26 0 -27 -2 -27 -55z"/>
<path d="M243 539 c-56 -27 -89 -68 -108 -131 -23 -79 -23 -78 50 -78 49 0 65
-3 65 -14 0 -8 14 -26 32 -41 26 -22 39 -26 66 -21 37 6 82 40 82 63 0 9 17
13 61 13 l62 0 -5 51 c-14 139 -175 223 -305 158z m175 -28 c20 -10 44 -27 53
-37 17 -19 59 -90 59 -99 0 -3 -22 -5 -50 -5 -36 0 -50 4 -50 14 0 23 -59 66
-90 66 -31 0 -90 -43 -90 -66 0 -10 -14 -14 -50 -14 -27 0 -50 4 -50 8 0 4 13
29 29 54 27 42 66 78 101 91 33 12 103 6 138 -12z m-50 -117 c24 -17 30 -62
10 -82 -37 -37 -113 12 -89 57 10 18 37 40 51 41 3 0 16 -7 28 -16z"/>
</g>
</svg>
